<svg xmlns="http://www.w3.org/2000/svg" viewBox="0 0 1600 900" font-family="'Segoe UI', Arial, sans-serif">
<rect x="0" y="0" width="1600" height="900" fill="#eef2f5"/>
<rect x="8" y="8" width="1584" height="884" rx="16" fill="#ffffff" stroke="#d7dee3" stroke-width="2"/>

<text x="60" y="46" font-size="26" font-weight="800" fill="#111827">KST AI ROBOT — WIRING DIAGRAM (OLED + ToF)</text>
<text x="60" y="68" font-size="13" fill="#6b7280">Wire from each component pin → the matching GPIO on the ESP32-S3 (N16R8) · this build uses L298N DC motors as wheels</text>

<!-- KST brand corner -->
<g transform="translate(1470,24)">
<circle cx="26" cy="26" r="24" fill="#f7fcfb" stroke="#4ab8e4" stroke-width="1.5"/>
<g fill="#ed1453"><circle cx="18" cy="20" r="12.5"/><circle cx="34" cy="20" r="12.5"/><circle cx="26" cy="34" r="12.5"/></g>
<g fill="#fff" font-family="Arial,sans-serif" font-size="13" font-weight="800" text-anchor="middle"><text x="18" y="24">K</text><text x="34" y="24">S</text><text x="26" y="39">T</text></g>
</g>
<text x="1450" y="70" text-anchor="end" font-size="12" font-weight="700" fill="#0d9488">KenhSangTao.COM</text>

<!-- ================= ESP32-S3 BOARD ================= -->
<rect x="660" y="120" width="280" height="740" rx="18" fill="#0f2438" stroke="#1f4a5c" stroke-width="2"/>
<text x="800" y="160" text-anchor="middle" font-size="15" font-weight="800" fill="#4ab8e4">KST AI ROBOT</text>
<text x="800" y="178" text-anchor="middle" font-size="10" fill="#5c8ba0">KenhSangTao.COM</text>
<rect x="700" y="290" width="200" height="230" rx="10" fill="#0a1a2b" stroke="#2f5b6e" stroke-width="1.5"/>
<text x="800" y="390" text-anchor="middle" font-size="15" font-weight="800" fill="#e5f4ff">ESP32-S3</text>
<text x="800" y="412" text-anchor="middle" font-size="11" fill="#7fb8d6">YD Black Board</text>
<text x="800" y="430" text-anchor="middle" font-size="10" fill="#5c8ba0">N16R8 · 16MB/8MB</text>
<rect x="770" y="828" width="60" height="26" rx="4" fill="#8a8f98" stroke="#5a5f68"/>
<text x="800" y="847" text-anchor="middle" font-size="9" fill="#f3f4f6">USB-C</text>

<!-- pin header strips -->
<rect x="648" y="140" width="12" height="700" fill="#1a3b4d"/>
<rect x="940" y="140" width="12" height="700" fill="#1a3b4d"/>

<!-- ============ LEFT PIN STUBS ============ -->
<circle cx="660" cy="160" r="4" fill="#e5e7eb"/><line x1="660" y1="160" x2="615" y2="160" stroke="#9ca3af" stroke-width="2" stroke-dasharray="4 3"/>
<text x="610" y="164" text-anchor="end" font-size="12" font-weight="700" fill="#374151">3V3</text>
<circle cx="660" cy="205" r="4" fill="#0d9488"/><line x1="660" y1="205" x2="615" y2="205" stroke="#0d9488" stroke-width="2"/>
<text x="610" y="209" text-anchor="end" font-size="12" font-weight="700" fill="#0d9488">GPIO4</text>
<circle cx="660" cy="240" r="4" fill="#0d9488"/><line x1="660" y1="240" x2="615" y2="240" stroke="#0d9488" stroke-width="2"/>
<text x="610" y="244" text-anchor="end" font-size="12" font-weight="700" fill="#0d9488">GPIO5</text>
<circle cx="660" cy="275" r="4" fill="#0d9488"/><line x1="660" y1="275" x2="615" y2="275" stroke="#0d9488" stroke-width="2"/>
<text x="610" y="279" text-anchor="end" font-size="12" font-weight="700" fill="#0d9488">GPIO6</text>
<circle cx="660" cy="335" r="4" fill="#2563eb"/><line x1="660" y1="335" x2="615" y2="335" stroke="#2563eb" stroke-width="2"/>
<text x="610" y="339" text-anchor="end" font-size="12" font-weight="700" fill="#2563eb">GPIO7</text>
<circle cx="660" cy="370" r="4" fill="#2563eb"/><line x1="660" y1="370" x2="615" y2="370" stroke="#2563eb" stroke-width="2"/>
<text x="610" y="374" text-anchor="end" font-size="12" font-weight="700" fill="#2563eb">GPIO15</text>
<circle cx="660" cy="405" r="4" fill="#2563eb"/><line x1="660" y1="405" x2="615" y2="405" stroke="#2563eb" stroke-width="2"/>
<text x="610" y="409" text-anchor="end" font-size="12" font-weight="700" fill="#2563eb">GPIO16</text>
<circle cx="660" cy="465" r="4" fill="#16a34a"/><line x1="660" y1="465" x2="615" y2="465" stroke="#16a34a" stroke-width="2"/>
<text x="610" y="469" text-anchor="end" font-size="12" font-weight="700" fill="#16a34a">GPIO17</text>
<circle cx="660" cy="525" r="4" fill="#0891b2"/><line x1="660" y1="525" x2="615" y2="525" stroke="#0891b2" stroke-width="2"/>
<text x="610" y="529" text-anchor="end" font-size="12" font-weight="700" fill="#0891b2">GPIO1</text>
<circle cx="660" cy="560" r="4" fill="#0891b2"/><line x1="660" y1="560" x2="615" y2="560" stroke="#0891b2" stroke-width="2"/>
<text x="610" y="564" text-anchor="end" font-size="12" font-weight="700" fill="#0891b2">GPIO2</text>
<circle cx="660" cy="740" r="4" fill="#6b7280"/><line x1="660" y1="740" x2="615" y2="740" stroke="#6b7280" stroke-width="2" stroke-dasharray="4 3"/>
<text x="610" y="744" text-anchor="end" font-size="12" font-weight="700" fill="#6b7280">GND</text>

<!-- ============ RIGHT PIN STUBS ============ -->
<circle cx="940" cy="170" r="4" fill="#7c3aed"/><line x1="940" y1="170" x2="985" y2="170" stroke="#7c3aed" stroke-width="2"/>
<text x="990" y="174" font-size="12" font-weight="700" fill="#7c3aed">GPIO41</text>
<circle cx="940" cy="205" r="4" fill="#7c3aed"/><line x1="940" y1="205" x2="985" y2="205" stroke="#7c3aed" stroke-width="2"/>
<text x="990" y="209" font-size="12" font-weight="700" fill="#7c3aed">GPIO42</text>
<circle cx="940" cy="240" r="4" fill="#e5e7eb"/><line x1="940" y1="240" x2="985" y2="240" stroke="#9ca3af" stroke-width="2" stroke-dasharray="4 3"/>
<text x="990" y="244" font-size="12" font-weight="700" fill="#374151">3V3</text>
<circle cx="940" cy="290" r="4" fill="#d97706"/><line x1="940" y1="290" x2="985" y2="290" stroke="#d97706" stroke-width="2"/>
<text x="990" y="294" font-size="12" font-weight="700" fill="#d97706">GPIO38</text>
<circle cx="940" cy="325" r="4" fill="#d97706"/><line x1="940" y1="325" x2="985" y2="325" stroke="#d97706" stroke-width="2"/>
<text x="990" y="329" font-size="12" font-weight="700" fill="#d97706">GPIO18</text>
<circle cx="940" cy="405" r="4" fill="#ea580c"/><line x1="940" y1="405" x2="985" y2="405" stroke="#ea580c" stroke-width="2.6"/>
<text x="990" y="409" font-size="12" font-weight="700" fill="#ea580c">GPIO11</text>
<circle cx="940" cy="435" r="4" fill="#ea580c"/><line x1="940" y1="435" x2="985" y2="435" stroke="#ea580c" stroke-width="2.6"/>
<text x="990" y="439" font-size="12" font-weight="700" fill="#ea580c">GPIO12</text>
<circle cx="940" cy="465" r="4" fill="#ea580c"/><line x1="940" y1="465" x2="985" y2="465" stroke="#ea580c" stroke-width="2.6"/>
<text x="990" y="469" font-size="12" font-weight="700" fill="#ea580c">GPIO13</text>
<circle cx="940" cy="495" r="4" fill="#ea580c"/><line x1="940" y1="495" x2="985" y2="495" stroke="#ea580c" stroke-width="2.6"/>
<text x="990" y="499" font-size="12" font-weight="700" fill="#ea580c">GPIO14</text>
<circle cx="940" cy="525" r="4" fill="#6b7280"/><line x1="940" y1="525" x2="985" y2="525" stroke="#6b7280" stroke-width="2" stroke-dasharray="4 3"/>
<text x="990" y="529" font-size="12" font-weight="700" fill="#6b7280">GND</text>
<circle cx="940" cy="585" r="4" fill="#9ca3af"/><line x1="940" y1="585" x2="985" y2="585" stroke="#9ca3af" stroke-width="2" stroke-dasharray="3 3"/>
<text x="990" y="589" font-size="12" font-weight="700" fill="#9ca3af">GPIO45</text>
<circle cx="940" cy="615" r="4" fill="#9ca3af"/><line x1="940" y1="615" x2="985" y2="615" stroke="#9ca3af" stroke-width="2" stroke-dasharray="3 3"/>
<text x="990" y="619" font-size="12" font-weight="700" fill="#9ca3af">GPIO46</text>
<circle cx="940" cy="675" r="4" fill="#9ca3af"/><line x1="940" y1="675" x2="985" y2="675" stroke="#9ca3af" stroke-width="2" stroke-dasharray="3 3"/>
<text x="990" y="679" font-size="12" font-weight="700" fill="#9ca3af">GPIO47</text>
<circle cx="940" cy="705" r="4" fill="#9ca3af"/><line x1="940" y1="705" x2="985" y2="705" stroke="#9ca3af" stroke-width="2" stroke-dasharray="3 3"/>
<text x="990" y="709" font-size="12" font-weight="700" fill="#9ca3af">GPIO3</text>

<!-- ================= WIRES ================= -->
<!-- Mic -->
<path d="M240,180 C420,180 400,160 615,160" stroke="#9ca3af" stroke-width="2" fill="none" stroke-dasharray="4 3"/>
<path d="M240,210 C420,210 420,205 615,205" stroke="#0d9488" stroke-width="2.2" fill="none"/>
<path d="M240,240 C420,240 420,240 615,240" stroke="#0d9488" stroke-width="2.2" fill="none"/>
<path d="M240,270 C420,270 420,275 615,275" stroke="#0d9488" stroke-width="2.2" fill="none"/>
<path d="M240,300 C450,300 500,740 615,740" stroke="#6b7280" stroke-width="2" fill="none" stroke-dasharray="4 3"/>

<!-- Speaker -->
<path d="M240,378 C400,378 400,335 615,335" stroke="#2563eb" stroke-width="2.2" fill="none"/>
<path d="M240,406 C400,406 400,370 615,370" stroke="#2563eb" stroke-width="2.2" fill="none"/>
<path d="M240,434 C400,434 400,405 615,405" stroke="#2563eb" stroke-width="2.2" fill="none"/>
<path d="M240,462 C460,462 500,740 615,740" stroke="#6b7280" stroke-width="2" fill="none" stroke-dasharray="4 3"/>

<!-- Touch -->
<path d="M240,555 C420,555 420,465 615,465" stroke="#16a34a" stroke-width="2.2" fill="none"/>
<path d="M240,525 C400,525 480,160 615,160" stroke="#9ca3af" stroke-width="2" fill="none" stroke-dasharray="4 3"/>
<path d="M240,585 C420,585 480,740 615,740" stroke="#6b7280" stroke-width="2" fill="none" stroke-dasharray="4 3"/>

<!-- ToF -->
<path d="M240,650 C400,650 420,525 615,525" stroke="#0891b2" stroke-width="2.2" fill="none"/>
<path d="M240,680 C420,680 420,560 615,560" stroke="#0891b2" stroke-width="2.2" fill="none"/>
<path d="M240,620 C460,620 500,160 615,160" stroke="#9ca3af" stroke-width="2" fill="none" stroke-dasharray="4 3"/>
<path d="M240,710 C450,710 500,740 615,740" stroke="#6b7280" stroke-width="2" fill="none" stroke-dasharray="4 3"/>

<!-- OLED display -->
<path d="M1360,192 C1200,192 1150,170 985,170" stroke="#7c3aed" stroke-width="2.2" fill="none"/>
<path d="M1360,218 C1180,218 1150,205 985,205" stroke="#7c3aed" stroke-width="2.2" fill="none"/>
<path d="M1360,244 C1180,244 1150,240 985,240" stroke="#9ca3af" stroke-width="2" fill="none" stroke-dasharray="4 3"/>

<!-- LED -->
<path d="M1360,392 C1180,392 1150,290 985,290" stroke="#d97706" stroke-width="2.2" fill="none"/>
<path d="M1360,418 C1180,418 1150,325 985,325" stroke="#d97706" stroke-width="2.2" fill="none"/>

<!-- L298N (active, wheels) -->
<path d="M1360,568 C1180,568 1150,405 985,405" stroke="#ea580c" stroke-width="2.6" fill="none"/>
<path d="M1360,594 C1180,594 1150,435 985,435" stroke="#ea580c" stroke-width="2.6" fill="none"/>
<path d="M1360,620 C1180,620 1150,465 985,465" stroke="#ea580c" stroke-width="2.6" fill="none"/>
<path d="M1360,646 C1180,646 1150,495 985,495" stroke="#ea580c" stroke-width="2.6" fill="none"/>
<path d="M1360,672 C1180,672 1150,525 985,525" stroke="#6b7280" stroke-width="2" fill="none" stroke-dasharray="4 3"/>

<!-- Servo 360 optional -->
<path d="M1360,745 C1180,745 1150,585 985,585" stroke="#9ca3af" stroke-width="2" fill="none" stroke-dasharray="5 4"/>
<path d="M1360,771 C1180,771 1150,615 985,615" stroke="#9ca3af" stroke-width="2" fill="none" stroke-dasharray="5 4"/>

<!-- Servo arm/neck optional -->
<path d="M1360,824 C1180,824 1150,675 985,675" stroke="#9ca3af" stroke-width="2" fill="none" stroke-dasharray="5 4"/>
<path d="M1360,850 C1180,850 1150,705 985,705" stroke="#9ca3af" stroke-width="2" fill="none" stroke-dasharray="5 4"/>

<!-- ================= LEFT COMPONENT MODULES ================= -->
<!-- Mic INMP441 -->
<g>
<rect x="50" y="150" width="190" height="170" rx="10" fill="#ffffff" stroke="#0d9488" stroke-width="2.5"/>
<circle cx="60" cy="160" r="3" fill="#0d9488"/><circle cx="230" cy="160" r="3" fill="#0d9488"/><circle cx="60" cy="310" r="3" fill="#0d9488"/><circle cx="230" cy="310" r="3" fill="#0d9488"/>
<text x="145" y="176" text-anchor="middle" font-size="15" font-weight="800" fill="#0d9488">INMP441</text>
<text x="145" y="192" text-anchor="middle" font-size="10" fill="#6b7280">I2S microphone</text>
<line x1="66" y1="200" x2="224" y2="200" stroke="#e5e7eb"/>
<text x="66" y="215" font-size="12" fill="#374151">VCC → 3V3</text>
<text x="66" y="245" font-size="12" fill="#374151"><tspan font-weight="700" fill="#0d9488">WS</tspan> → GPIO4</text>
<text x="66" y="275" font-size="12" fill="#374151"><tspan font-weight="700" fill="#0d9488">SCK</tspan> → GPIO5</text>
<text x="66" y="300" font-size="12" fill="#374151"><tspan font-weight="700" fill="#0d9488">SD</tspan> → GPIO6</text>
<text x="145" y="336" text-anchor="middle" font-size="11" font-weight="700" fill="#b91c1c">L/R → GND</text>
</g>

<!-- Speaker MAX98357A -->
<g>
<rect x="50" y="360" width="190" height="150" rx="10" fill="#ffffff" stroke="#2563eb" stroke-width="2.5"/>
<circle cx="60" cy="370" r="3" fill="#2563eb"/><circle cx="230" cy="370" r="3" fill="#2563eb"/><circle cx="60" cy="500" r="3" fill="#2563eb"/><circle cx="230" cy="500" r="3" fill="#2563eb"/>
<text x="145" y="386" text-anchor="middle" font-size="15" font-weight="800" fill="#2563eb">MAX98357A</text>
<text x="145" y="402" text-anchor="middle" font-size="10" fill="#6b7280">I2S amplified speaker</text>
<line x1="66" y1="410" x2="224" y2="410" stroke="#e5e7eb"/>
<text x="66" y="410" font-size="12" fill="#374151">VIN → 5V (separate supply)</text>
<text x="66" y="438" font-size="12" fill="#374151"><tspan font-weight="700" fill="#2563eb">DIN</tspan> → GPIO7</text>
<text x="66" y="466" font-size="12" fill="#374151"><tspan font-weight="700" fill="#2563eb">BCLK</tspan> → GPIO15 · <tspan font-weight="700" fill="#2563eb">LRCK</tspan> → GPIO16</text>
<text x="145" y="494" text-anchor="middle" font-size="11" font-weight="700" fill="#b91c1c">SD hard-wired always on</text>
</g>
<text x="25" y="410" text-anchor="middle" font-size="18">🔋</text>

<!-- TTP223 -->
<g>
<rect x="50" y="540" width="190" height="90" rx="10" fill="#ffffff" stroke="#16a34a" stroke-width="2.5"/>
<circle cx="60" cy="550" r="3" fill="#16a34a"/><circle cx="230" cy="550" r="3" fill="#16a34a"/><circle cx="60" cy="620" r="3" fill="#16a34a"/><circle cx="230" cy="620" r="3" fill="#16a34a"/>
<text x="145" y="562" text-anchor="middle" font-size="14" font-weight="800" fill="#16a34a">TTP223</text>
<text x="145" y="577" text-anchor="middle" font-size="10" fill="#6b7280">Touch sensor</text>
<text x="66" y="598" font-size="12" fill="#374151">VCC→3V3 · <tspan font-weight="700" fill="#16a34a">OUT</tspan>→GPIO17</text>
<text x="66" y="616" font-size="12" fill="#374151">GND → GND</text>
</g>

<!-- ToF -->
<g>
<rect x="50" y="640" width="190" height="90" rx="10" fill="#ffffff" stroke="#0891b2" stroke-width="2.5"/>
<circle cx="60" cy="650" r="3" fill="#0891b2"/><circle cx="230" cy="650" r="3" fill="#0891b2"/><circle cx="60" cy="720" r="3" fill="#0891b2"/><circle cx="230" cy="720" r="3" fill="#0891b2"/>
<text x="145" y="662" text-anchor="middle" font-size="14" font-weight="800" fill="#0891b2">VL6180X / TOF050C</text>
<text x="145" y="677" text-anchor="middle" font-size="10" fill="#6b7280">Anti-fall sensor</text>
<text x="66" y="698" font-size="12" fill="#374151">VCC→3V3 · GND→GND</text>
<text x="66" y="716" font-size="12" fill="#374151"><tspan font-weight="700" fill="#0891b2">SDA</tspan>→GPIO1 · <tspan font-weight="700" fill="#0891b2">SCL</tspan>→GPIO2</text>
</g>

<!-- ================= RIGHT COMPONENT MODULES ================= -->
<!-- OLED -->
<g>
<rect x="1180" y="145" width="180" height="125" rx="10" fill="#ffffff" stroke="#7c3aed" stroke-width="2.5"/>
<rect x="1195" y="159" width="150" height="56" rx="4" fill="#0f2438" stroke="#7c3aed"/>
<circle cx="1215" cy="187" r="10" fill="none" stroke="#4ab8e4" stroke-width="2"/>
<circle cx="1213" cy="183" r="2.4" fill="#4ab8e4"/><circle cx="1219" cy="183" r="2.4" fill="#4ab8e4"/>
<path d="M1207,193 q9,6 17,0" stroke="#4ab8e4" stroke-width="1.8" fill="none"/>
<text x="1270" y="192" text-anchor="middle" font-size="9" font-weight="700" fill="#4ab8e4">SSD1306</text>
<text x="1270" y="234" text-anchor="middle" font-size="13" font-weight="800" fill="#7c3aed">OLED display</text>
<text x="1270" y="250" text-anchor="middle" font-size="10" fill="#6b7280">I2C 128×64 · 0x3C</text>
<text x="1195" y="266" font-size="11" fill="#374151"><tspan font-weight="700" fill="#7c3aed">SDA</tspan>→41 · <tspan font-weight="700" fill="#7c3aed">SCL</tspan>→42</text>
</g>

<!-- LED -->
<g>
<rect x="1180" y="284" width="180" height="80" rx="10" fill="#ffffff" stroke="#d97706" stroke-width="2.5"/>
<circle cx="1210" cy="310" r="10" fill="#fff7ed" stroke="#d97706" stroke-width="2"/>
<circle cx="1238" cy="310" r="10" fill="#fff7ed" stroke="#d97706" stroke-width="2"/>
<text x="1300" y="307" font-size="12" font-weight="800" fill="#d97706">Decorative LEDs</text>
<text x="1195" y="343" font-size="11" fill="#374151">LED1 <tspan font-weight="700" fill="#d97706">GPIO38</tspan> · LED2 <tspan font-weight="700" fill="#d97706">GPIO18</tspan></text>
</g>

<!-- L298N ACTIVE -->
<g>
<rect x="1180" y="378" width="180" height="160" rx="10" fill="#fff7ed" stroke="#ea580c" stroke-width="3"/>
<text x="1270" y="400" text-anchor="middle" font-size="12" font-weight="800" fill="#ea580c">L298N mini — ACTIVE</text>
<text x="1270" y="414" text-anchor="middle" font-size="9" fill="#c2410c">left/right wheels (4 pins)</text>
<text x="1195" y="436" font-size="11" fill="#374151">IN1·IN2 → <tspan font-weight="700" fill="#ea580c">GPIO11·12</tspan></text>
<text x="1195" y="454" font-size="11" fill="#374151">IN3·IN4 → <tspan font-weight="700" fill="#ea580c">GPIO13·14</tspan></text>
<text x="1195" y="480" font-size="10" font-weight="700" fill="#6b7280">Separate 5-6V motor supply</text>
<text x="1195" y="496" font-size="10" font-weight="700" fill="#6b7280">Share GND with the ESP32</text>
<text x="1195" y="520" font-size="10" fill="#9ca3af">Remap IN1-IN4 to reverse at /robot</text>
</g>
<text x="1370" y="460" text-anchor="middle" font-size="18">🔋</text>

<!-- Servo 360 optional -->
<g>
<rect x="1180" y="554" width="180" height="110" rx="10" fill="#f9fafb" stroke="#9ca3af" stroke-width="2" stroke-dasharray="6 4"/>
<text x="1270" y="576" text-anchor="middle" font-size="12" font-weight="800" fill="#6b7280">360° servo (OPTIONAL)</text>
<text x="1270" y="590" text-anchor="middle" font-size="9" font-weight="700" fill="#b91c1c">Alternative to L298N if preferred</text>
<text x="1195" y="614" font-size="11" fill="#6b7280">Left → GPIO45 · Right → GPIO46</text>
<text x="1195" y="638" font-size="10" fill="#9ca3af">Pick the drivetrain type at /robot</text>
</g>

<!-- Servo arm/neck optional -->
<g>
<rect x="1180" y="678" width="180" height="100" rx="10" fill="#f9fafb" stroke="#9ca3af" stroke-width="2" stroke-dasharray="6 4"/>
<text x="1270" y="700" text-anchor="middle" font-size="12" font-weight="800" fill="#6b7280">Arm/neck servo (OPTIONAL)</text>
<text x="1270" y="714" text-anchor="middle" font-size="9" font-weight="700" fill="#b91c1c">Only if your build has an arm/neck</text>
<text x="1195" y="738" font-size="11" fill="#6b7280">Arm → GPIO47 · Neck → GPIO3</text>
<text x="1195" y="762" font-size="10" fill="#9ca3af">Separate 5V supply if fitted</text>
</g>

<text x="800" y="875" text-anchor="middle" font-size="11" fill="#9ca3af">🔋 = needs its own external power · dashed grey = power/GND wire or an optional block not used by default · Reference diagram, not to scale</text>
</svg>
